<svg xmlns="http://www.w3.org/2000/svg" xmlns:xlink="http://www.w3.org/1999/xlink" version="1.1" x="0px" y="0px" viewBox="0 0 1000 1250" enable-background="new 0 0 1000 1000" xml:space="preserve"><g><rect x="776" y="621" fill-rule="evenodd" clip-rule="evenodd" width="35" height="69"/><rect x="741" y="690" fill-rule="evenodd" clip-rule="evenodd" width="35" height="35"/><rect x="707" y="725" fill-rule="evenodd" clip-rule="evenodd" width="34" height="34"/><rect x="638" y="863" fill-rule="evenodd" clip-rule="evenodd" width="103" height="35"/><rect x="638" y="759" fill-rule="evenodd" clip-rule="evenodd" width="69" height="35"/><rect x="603" y="794" fill-rule="evenodd" clip-rule="evenodd" width="35" height="69"/><rect x="741" y="794" fill-rule="evenodd" clip-rule="evenodd" width="35" height="69"/>
<path fill-rule="evenodd" clip-rule="evenodd" d="M776.1,586H811V413h-35v-34h-69v-69h35v-35h34V102h-34v35h-35v34h-69v-34h-35v-35   h-34v173h34v35h35v207h-35v35h-34v34h138v35h69v-35H776.1z M707,206h35v34h-35V206z M638,240h-35v-34h35V240z"/><polygon fill-rule="evenodd" clip-rule="evenodd" points="224,275 293,275 293,240 258,240 258,137 293,137 293,102 224,102    224,137 189,137 189,240 224,240  "/><rect x="224" y="621" fill-rule="evenodd" clip-rule="evenodd" width="34" height="69"/><rect x="258" y="690" fill-rule="evenodd" clip-rule="evenodd" width="35" height="35"/><rect x="293" y="725" fill-rule="evenodd" clip-rule="evenodd" width="34" height="34"/><rect x="293" y="863" fill-rule="evenodd" clip-rule="evenodd" width="104" height="35"/><rect x="327" y="759" fill-rule="evenodd" clip-rule="evenodd" width="70" height="35"/><rect x="397" y="794" fill-rule="evenodd" clip-rule="evenodd" width="34" height="69"/><rect x="258" y="794" fill-rule="evenodd" clip-rule="evenodd" width="35" height="69"/><path fill-rule="evenodd" clip-rule="evenodd" d="M500,137h-34v34h-69v-34h-35v-35h-35v173h35v35h35v69h-70v34h-34v173h-35v35h69   v-35h208v-34h-35v-35h-34V310h34v-35h35V102h-35V137z M397,240h-35v-34h35V240z M500,240h-34v-34h34V240z"/></g>
<text x="0" y="1015" fill="#000000" font-size="5px" font-weight="bold" font-family="'Helvetica Neue', Helvetica, Arial-Unicode, Arial, Sans-serif">Created by Alvaro Cabrera</text><text x="0" y="1020" fill="#000000" font-size="5px" font-weight="bold" font-family="'Helvetica Neue', Helvetica, Arial-Unicode, Arial, Sans-serif">from the Noun Project</text></svg>